<svg width="64" height="64" viewBox="0 0 64 64" fill="none" xmlns="http://www.w3.org/2000/svg">
  <path d="M32 10C22 10 20 16 20 20V28H34V31H12C9.8 31 8 32.8 8 35V42C8 52 16 54 24 54C33 54 40 50 40 42V34C40 28 35 24 29 24H24V21C24 16.8 27.6 14 32 14H40C43.3 14 46 11.3 46 8H32V10Z" fill="#3776AB"/>
  <circle cx="27" cy="19" r="2" fill="#F7F7F7"/>
  <path d="M32 54C42 54 44 48 44 44V36H30V33H52C54.2 33 56 31.2 56 29V22C56 12 48 10 40 10C31 10 24 14 24 22V30C24 36 29 40 35 40H40V43C40 47.2 36.4 50 32 50H24C20.7 50 18 52.7 18 56H32V54Z" fill="#FFD343"/>
  <circle cx="37" cy="45" r="2" fill="#6B4E00"/>
</svg>
